<svg fill="none" height="100" viewBox="0 0 835 100" width="835" xmlns="http://www.w3.org/2000/svg"><g clip-rule="evenodd" fill-rule="evenodd"><path d="m687.98 0c-14.872 0-27.18 4.61539-37.436 13.8462-9.744 9.2307-14.872 21.5384-14.872 36.4102s5.128 26.6667 14.872 35.8974c9.743 9.2308 22.564 13.8462 37.436 13.8462 14.871 0 27.179-4.6154 36.923-13.8462 9.743-9.2307 14.871-21.0256 14.871-35.8974s-5.128-26.6666-14.871-35.8974c-9.744-9.74361-22.564-14.359-36.923-14.359zm21.538 71.7949c-5.641 5.641-12.821 8.7179-21.538 8.7179-8.718 0-15.898-3.0769-21.539-8.7179-5.641-5.6411-8.718-13.3334-8.718-22.0513 0-8.718 3.077-15.8974 8.718-22.0513 5.641-6.1538 12.821-8.7179 21.539-8.7179 8.717 0 15.897 3.0769 21.538 8.7179 5.641 6.1539 8.718 13.3333 8.718 22.0513-.513 9.2308-3.077 16.4102-8.718 22.0513z" fill="#f25f5c"/><path d="m491.056 1.02661h-40.513c-.512 0-1.025 0-1.538.51282s-.513 1.02564-.513 1.53846v63.58971 12.3077c0 13.3334 5.128 18.4616 18.462 18.9744h2.051v-29.2308h22.051c9.231 0 16.411-2.0513 22.052-6.6666 8.718-6.6667 12.82-15.8975 12.82-27.1795 0-11.2821-4.102-20-11.795-26.6667-5.641-4.61539-13.333-7.17949-23.077-7.17949zm7.693 47.69229c-2.564 1.5385-6.154 2.5641-10.77 2.5641h-18.974v-31.7948h19.487c4.103 0 7.693 1.0256 10.769 3.0769 4.103 2.5641 6.154 7.1795 6.154 13.3333 0 5.641-2.051 10.2564-6.666 12.8205z" fill="#f25f5c"/><path d="m823.363 8.2061c-6.154-4.61539-13.846-7.17949-23.077-7.17949h-40.513c-.513 0-1.026 0-1.539.51282-.512.51282-.512 1.02564-.512 1.53846v63.58971 12.3077 2.0513.5128c.513 11.7949 6.154 16.4103 17.948 16.4103h2.052v-2.0513-27.1795h22.051c9.231 0 16.41-2.0513 22.051-6.6666 8.718-6.6667 12.821-15.8975 12.821-27.1795.513-11.2821-3.59-20-11.282-26.6667zm-15.385 40.5128c-2.564 1.5385-6.154 2.5641-10.769 2.5641h-18.974v-31.7948h19.487c4.102 0 7.692 1.0256 10.769 3.0769 4.102 2.5641 6.154 7.1795 6.154 13.3333-.513 5.641-2.564 10.2564-6.667 12.8205z" fill="#f25f5c"/><path d="m620.802 89.7446-8.205-12.8206-6.667-10.2564-3.076-4.6153c3.589-1.5385 6.153-3.077 8.718-5.1282 7.179-6.1539 10.769-13.8462 10.769-24.1026 0-11.2821-3.59-19.4872-11.282-25.12823-6.154-4.61538-13.847-6.66666-24.616-6.66666h-41.538c-.513 0-1.026 0-1.539.51282-.512.51282-.512 1.02564-.512 1.53846v63.58971 12.3077 1.0257c.512 12.8205 5.641 16.923 18.461 17.4359h2.051v-2.0513-29.2308-2.0513h18.462l7.692 12.8205c.513.5129.513 1.0257 1.026 1.5385l2.564 4.1026c1.026 1.5384 2.051 3.0769 3.077 5.1282 7.692 12.3077 14.872 13.3337 27.179 5.641zm-25.128-44.6154c-2.564 1.5384-6.667 2.5641-12.82 2.5641h-20v-28.718h21.538c4.615 0 8.205 1.0257 11.282 2.5641 3.59 2.5641 5.641 6.1539 5.641 11.7949 0 5.1282-1.538 9.2308-5.641 11.7949z" fill="#f25f5c"/><g fill="#0c838f"><path d="m331.568 1.02686c-.513 0-1.026 0-2.051 0-12.308.51282-16.923 5.1282-17.436 16.92304v1.0257 11.7948 32.8206l-46.667-61.02569c-1.538-.51282-2.564-1.53845-4.102-1.53845h-14.359c-.513 0-1.026 0-1.539.51282s-.513 1.02564-.513 1.53846v65.12816 9.7436 2.0513c0 13.3334 5.129 17.9487 17.436 18.4616h2.052v-30.2565-32.8205l46.666 61.0257c1.026 1.5384 2.051 2.0513 4.103 2.0513h14.359c.513 0 1.025 0 1.538-.5129.513-.5128.513-1.0256.513-1.5384v-93.33336z"/><path d="m223.362 1.02686c-.513 0-1.026 0-2.051 0-13.334.51282-18.462 5.1282-18.462 18.97434v12.3077 34.359 12.3077c0 13.8461 5.128 18.4615 18.462 18.9743h2.051v-31.282-34.359z"/><path d="m413.106 66.6665-17.436-23.5897 13.846-13.8462 10.256-10.7692 7.18-7.6923 2.564-2.5641c-9.744-9.23077-16.41-10.25641-25.641-.51282-3.077 3.07692-4.615 4.61542-7.18 7.69232l-22.564 24.6154v-7.6923-31.28208c-.512 0-1.025 0-2.051 0-12.308.51282-17.436 4.61538-17.949 16.92308v.5128 2.0513 12.3077 34.359 12.3076 2.0513.5128c.513 11.7949 5.641 16.4103 17.949 16.9231h2.051v-31.282-.5128l7.693-8.2052 23.077 30.7693c8.718 11.7945 15.897 12.3075 28.205 3.0769z"/><path d="m181.31 1.02625c-.513 0-1.026 0-2.052 0-13.333.51282-18.461 5.12821-18.461 18.97435v12.3077 7.6923h-44.103v-7.6923c0-5.1282 0-7.1795 0-12.3077v-2.0513s0 0 0-.5128c-.512-11.79486-5.641-16.41025-17.9484-16.923072-.5128 0-1.5384 0-2.0513 0v2.051282 92.82049 3.077h2.0513c12.3074-.5129 17.9484-5.1283 17.9484-17.436v-1.0256c0-5.1282 0-7.1795 0-12.3077v-8.2051h44.103v8.2051 12.3077c0 13.8462 5.128 18.4615 18.461 18.9744h2.052v-31.2821-34.359z"/><path d="m81.3108 1.02686h-78.97436-2.051284v2.05128c.512821 11.28206 4.615384 15.89746 15.897444 15.89746h1.0256 10.7693 3.0769v76.9231 2.5641h2.0513c13.3333-.5129 18.4615-5.1283 18.4615-18.9744 0-5.1282 0-7.1795 0-12.3077v-47.6923h29.2308c.5128 0 1.0256 0 1.5384-.5128s.5129-1.0257.5129-1.5385v-13.84614c0-.51282-.0001-1.02564-.5129-1.53846 0-.51282-.5128-1.02564-1.0256-1.02564z"/></g></g></svg>